<svg xmlns="http://www.w3.org/2000/svg" viewBox="0 0 32 32" width="32" height="32">
  <!-- Book body / cover -->
  <path d="M6 3 L26 3 C27.1 3 28 3.9 28 5 L28 27 C28 28.1 27.1 29 26 29 L6 29 C4.9 29 4 28.1 4 27 L4 5 C4 3.9 4.9 3 6 3 Z" fill="#d4a843"/>
  <!-- Spine edge -->
  <rect x="4" y="3" width="3.5" height="26" rx="1" fill="#a07d2e"/>
  <!-- Spine ridges -->
  <line x1="4.5" y1="7" x2="7" y2="7" stroke="#8B6914" stroke-width="0.6"/>
  <line x1="4.5" y1="10" x2="7" y2="10" stroke="#8B6914" stroke-width="0.6"/>
  <line x1="4.5" y1="22" x2="7" y2="22" stroke="#8B6914" stroke-width="0.6"/>
  <line x1="4.5" y1="25" x2="7" y2="25" stroke="#8B6914" stroke-width="0.6"/>
  <!-- Page edges -->
  <line x1="7.5" y1="28" x2="27" y2="28" stroke="#f5e6c8" stroke-width="0.6"/>
  <line x1="7.5" y1="27.2" x2="27" y2="27.2" stroke="#f5e6c8" stroke-width="0.4" opacity="0.7"/>
  <!-- Cover border -->
  <rect x="9" y="5.5" width="17" height="21" rx="1.5" fill="none" stroke="#8B6914" stroke-width="0.8"/>
  <!-- Diamond emblem -->
  <path d="M17.5 9 L21 14 L17.5 19 L14 14 Z" fill="#a07d2e"/>
  <path d="M17.5 9 L21 14 L17.5 19 L14 14 Z" fill="none" stroke="#8B6914" stroke-width="0.9"/>
  <circle cx="17.5" cy="14" r="2.2" fill="#d4a843"/>
  <circle cx="17.5" cy="14" r="2.2" fill="none" stroke="#8B6914" stroke-width="0.7"/>
  <!-- Corner flourishes -->
  <path d="M10 6.5 L12.5 6.5 L10 9" fill="none" stroke="#8B6914" stroke-width="0.7"/>
  <path d="M25 6.5 L22.5 6.5 L25 9" fill="none" stroke="#8B6914" stroke-width="0.7"/>
  <path d="M10 25.5 L12.5 25.5 L10 23" fill="none" stroke="#8B6914" stroke-width="0.7"/>
  <path d="M25 25.5 L22.5 25.5 L25 23" fill="none" stroke="#8B6914" stroke-width="0.7"/>
  <!-- Bookmark ribbon -->
  <path d="M21 3 L21 8.5 L22.5 7 L24 8.5 L24 3" fill="#8B2500"/>
  <!-- Clasp -->
  <rect x="27" y="13" width="2" height="3" rx="0.5" fill="#a07d2e"/>
</svg>